<svg id="kity_svg_6" xmlns="http://www.w3.org/2000/svg" xmlns:xlink="http://www.w3.org/1999/xlink" version="1.1" width="1132" height="602" style="background: rgb(251, 251, 251); visibility: visible;" viewBox="0 0 1132 602"><defs id="kity_defs_7"><linearGradient id="kity_linearGradient_17" x1="0" y1="0" x2="0" y2="1"><stop id="kity_stop_18" offset="0" stop-color="rgb(255, 255, 255)"></stop><stop id="kity_stop_19" offset="1" stop-color="rgb(204, 204, 204)"></stop></linearGradient><marker id="kity_marker_2" orient="auto" refX="6" refY="0" viewBox="-7 -7 14 14" markerWidth="7" markerHeight="7" markerUnits="userSpaceOnUse"><path id="kity_path_3" fill="rgb(115, 161, 191)" stroke="none" d="M6,0A6,6,0,1,1,-6,0A6,6,0,1,1,6,0"></path></marker></defs><g id="kity_g_8"><g id="minder1" text-rendering="optimize-speed"><g id="minder_connect_group1"><path id="kity_path_31" fill="none" stroke="rgb(115, 161, 191)" stroke-width="1" d="M93.5,275.5A191,192,0,0,1,284.5,83.5"></path><path id="kity_path_39" fill="none" stroke="rgb(115, 161, 191)" stroke-width="1" d="M469.5,83.5C489.5,83.5,489.5,31.5,509.5,31.5"></path><path id="kity_path_47" fill="none" stroke="rgb(115, 161, 191)" stroke-width="1" d="M469.5,83.5C489.5,83.5,489.5,83.5,509.5,83.5"></path><path id="kity_path_55" fill="none" stroke="rgb(115, 161, 191)" stroke-width="1" d="M469.5,83.5C489.5,83.5,489.5,135.5,509.5,135.5"></path><path id="kity_path_63" fill="none" stroke="rgb(115, 161, 191)" stroke-width="1" d="M93.5,275.5A191,26,0,0,1,284.5,249.5"></path><path id="kity_path_79" fill="none" stroke="rgb(115, 161, 191)" stroke-width="1" d="M384.5,249.5C404.5,249.5,404.5,197.5,424.5,197.5"></path><path id="kity_path_95" fill="none" stroke="rgb(115, 161, 191)" stroke-width="1" d="M384.5,249.5C404.5,249.5,404.5,249.5,424.5,249.5"></path><path id="kity_path_103" fill="none" stroke="rgb(115, 161, 191)" stroke-width="1" d="M384.5,249.5C404.5,249.5,404.5,301.5,424.5,301.5"></path><path id="kity_path_111" fill="none" stroke="rgb(115, 161, 191)" stroke-width="1" d="M93.5,275.5A191,192,0,0,0,284.5,467.5"></path><path id="kity_path_119" fill="none" stroke="rgb(115, 161, 191)" stroke-width="1" d="M384.5,467.5C404.5,467.5,404.5,363.5,424.5,363.5"></path><path id="kity_path_127" fill="none" stroke="rgb(115, 161, 191)" stroke-width="1" d="M384.5,467.5C404.5,467.5,404.5,467.5,424.5,467.5"></path><path id="kity_path_135" fill="none" stroke="rgb(115, 161, 191)" stroke-width="1" d="M518.5,467.5C538.5,467.5,538.5,415.5,558.5,415.5"></path><path id="kity_path_143" fill="none" stroke="rgb(115, 161, 191)" stroke-width="1" d="M518.5,467.5C538.5,467.5,538.5,467.5,558.5,467.5"></path><path id="kity_path_159" fill="none" stroke="rgb(115, 161, 191)" stroke-width="1" d="M518.5,467.5C538.5,467.5,538.5,519.5,558.5,519.5"></path><path id="kity_path_167" fill="none" stroke="rgb(115, 161, 191)" stroke-width="1" d="M384.5,467.5C404.5,467.5,404.5,571.5,424.5,571.5"></path></g><g id="minder_node1"><path id="node_outline1" fill="rgb(115, 161, 191)" stroke="rgb(115, 161, 191)" d="M25.5,255.5h136a5,5,0,0,1,5,5v30a5,5,0,0,1,-5,5h-136a5,5,0,0,1,-5,-5v-30a5,5,0,0,1,5,-5z" stroke-width="3"></path><g id="node_text1" fill="white"><text id="kity_text_22" text-rendering="inherit" font-size="16" dy=".8em" y="267.5" x="44.5">提高类型安全</text></g></g><g id="kity_g_12"><path id="kity_path_13" fill="none" stroke="none" d="M44.5,275.5h0v0h0z"></path></g><g id="kity_g_14"><path id="kity_path_15" fill="none" stroke="none" d="M44.5,275.5h0v0h0z"></path><path id="kity_path_16" fill="none" stroke="none"></path></g><g id="minder_node2"><g id="node_expander1" style="cursor: pointer;"><path id="kity_path_36" fill="white" stroke="gray" d="M285.5,83.5A6,6,0,1,1,273.5,83.5A6,6,0,1,1,285.5,83.5"></path><path id="kity_path_37" fill="none" stroke="gray" d="M275,83.5L284,83.5"></path></g><path id="node_outline2" fill="rgb(238, 243, 246)" stroke="rgb(115, 161, 191)" d="M289.5,70.5h177a3,3,0,0,1,3,3v20a3,3,0,0,1,-3,3h-177a3,3,0,0,1,-3,-3v-20a3,3,0,0,1,3,-3z" stroke-width="1"></path><g id="node_text2" fill="black"><text id="kity_text_33" text-rendering="inherit" font-size="14" dy=".8em" y="76.5" x="306.5">强类型枚举enum class</text></g></g><g id="minder_node3"><g id="node_expander2" style="cursor: pointer;" display="none"><path id="kity_path_44" fill="white" stroke="gray" d="M509.5,31.5A6,6,0,1,1,497.5,31.5A6,6,0,1,1,509.5,31.5"></path><path id="kity_path_45" fill="none" stroke="gray"></path></g><path id="node_outline3" fill="none" stroke="none" d="M514.5,20.5h359a5,5,0,0,1,5,5v12a5,5,0,0,1,-5,5h-359a5,5,0,0,1,-5,-5v-12a5,5,0,0,1,5,-5z" stroke-width="3"></path><g id="node_text3" fill="black"><text id="kity_text_41" text-rendering="inherit" font-size="12" dy=".8em" y="25.5" x="519.5">强作用域，强类型枚举的成员的名称不会被输出到其副作用域空间</text></g></g><g id="minder_node4"><g id="node_expander3" style="cursor: pointer;" display="none"><path id="kity_path_52" fill="white" stroke="gray" d="M509.5,83.5A6,6,0,1,1,497.5,83.5A6,6,0,1,1,509.5,83.5"></path><path id="kity_path_53" fill="none" stroke="gray"></path></g><path id="node_outline4" fill="none" stroke="none" d="M514.5,72.5h204a5,5,0,0,1,5,5v12a5,5,0,0,1,-5,5h-204a5,5,0,0,1,-5,-5v-12a5,5,0,0,1,5,-5z" stroke-width="3"></path><g id="node_text4" fill="black"><text id="kity_text_49" text-rendering="inherit" font-size="12" dy=".8em" y="77.5" x="519.5">转换限制，不可以与整型隐式的互换</text></g></g><g id="minder_node5"><g id="node_expander4" style="cursor: pointer;" display="none"><path id="kity_path_60" fill="white" stroke="gray" d="M509.5,135.5A6,6,0,1,1,497.5,135.5A6,6,0,1,1,509.5,135.5"></path><path id="kity_path_61" fill="none" stroke="gray"></path></g><path id="node_outline5" fill="none" stroke="none" d="M514.5,124.5h593a5,5,0,0,1,5,5v12a5,5,0,0,1,-5,5h-593a5,5,0,0,1,-5,-5v-12a5,5,0,0,1,5,-5z" stroke-width="3"></path><g id="node_text5" fill="black"><text id="kity_text_57" text-rendering="inherit" font-size="12" dy=".8em" y="129.5" x="519.5">可以在后面加上 :type指定底层类型，如：enum class Type: char {A, B}指定Type是基于char类型的强类型枚举</text></g></g><g id="minder_node6"><g id="node_expander5" style="cursor: pointer;"><path id="kity_path_68" fill="white" stroke="gray" d="M285.5,249.5A6,6,0,1,1,273.5,249.5A6,6,0,1,1,285.5,249.5"></path><path id="kity_path_69" fill="none" stroke="gray" d="M275,249.5L284,249.5"></path></g><path id="node_outline6" fill="rgb(238, 243, 246)" stroke="rgb(115, 161, 191)" d="M289.5,236.5h92a3,3,0,0,1,3,3v20a3,3,0,0,1,-3,3h-92a3,3,0,0,1,-3,-3v-20a3,3,0,0,1,3,-3z" stroke-width="1"></path><g id="node_text6" fill="black"><text id="kity_text_65" text-rendering="inherit" font-size="14" dy=".8em" y="242.5" x="306.5">智能指针</text></g></g><g id="minder_node8"><g id="node_expander7" style="cursor: pointer;" display="none"><path id="kity_path_84" fill="white" stroke="gray" d="M424.5,197.5A6,6,0,1,1,412.5,197.5A6,6,0,1,1,424.5,197.5"></path><path id="kity_path_85" fill="none" stroke="gray" d="M414,197.5L423,197.5"></path></g><path id="node_outline8" fill="none" stroke="none" d="M429.5,186.5h516a5,5,0,0,1,5,5v12a5,5,0,0,1,-5,5h-516a5,5,0,0,1,-5,-5v-12a5,5,0,0,1,5,-5z" stroke-width="3"></path><g id="node_text8" fill="black"><text id="kity_text_81" text-rendering="inherit" font-size="12" dy=".8em" y="191.5" x="434.5">unique_ptr: 与所指对象的内存绑定紧密，不能与其他unique_ptr的指针对象共享所指对象的内存</text></g></g><g id="minder_node10"><g id="node_expander9" style="cursor: pointer;" display="none"><path id="kity_path_100" fill="white" stroke="gray" d="M424.5,249.5A6,6,0,1,1,412.5,249.5A6,6,0,1,1,424.5,249.5"></path><path id="kity_path_101" fill="none" stroke="gray"></path></g><path id="node_outline10" fill="none" stroke="none" d="M429.5,238.5h400a5,5,0,0,1,5,5v12a5,5,0,0,1,-5,5h-400a5,5,0,0,1,-5,-5v-12a5,5,0,0,1,5,-5z" stroke-width="3"></path><g id="node_text10" fill="black"><text id="kity_text_97" text-rendering="inherit" font-size="12" dy=".8em" y="243.5" x="434.5">shared_ptr: 采用引用计数，允许多个指针对象共享拥有同一堆内存的对象</text></g></g><g id="minder_node11"><g id="node_expander10" style="cursor: pointer;" display="none"><path id="kity_path_108" fill="white" stroke="gray" d="M424.5,301.5A6,6,0,1,1,412.5,301.5A6,6,0,1,1,424.5,301.5"></path><path id="kity_path_109" fill="none" stroke="gray"></path></g><path id="node_outline11" fill="none" stroke="none" d="M429.5,290.5h645a5,5,0,0,1,5,5v12a5,5,0,0,1,-5,5h-645a5,5,0,0,1,-5,-5v-12a5,5,0,0,1,5,-5z" stroke-width="3"></path><g id="node_text11" fill="black"><text id="kity_text_105" text-rendering="inherit" font-size="12" dy=".8em" y="295.5" x="434.5">weak_ptr: 可以指向shared_ptr指针指向的对象内存，却并不拥有该内存，使用weak_ptr的lock()成员返回一个shared_ptr</text></g></g><g id="minder_node12"><g id="node_expander11" style="cursor: pointer;"><path id="kity_path_116" fill="white" stroke="gray" d="M285.5,467.5A6,6,0,1,1,273.5,467.5A6,6,0,1,1,285.5,467.5"></path><path id="kity_path_117" fill="none" stroke="gray" d="M275,467.5L284,467.5"></path></g><path id="node_outline12" fill="rgb(238, 243, 246)" stroke="rgb(115, 161, 191)" d="M289.5,454.5h92a3,3,0,0,1,3,3v20a3,3,0,0,1,-3,3h-92a3,3,0,0,1,-3,-3v-20a3,3,0,0,1,3,-3z" stroke-width="1"></path><g id="node_text12" fill="black"><text id="kity_text_113" text-rendering="inherit" font-size="14" dy=".8em" y="460.5" x="306.5">垃圾回收</text></g></g><g id="minder_node13"><g id="node_expander12" style="cursor: pointer;" display="none"><path id="kity_path_124" fill="white" stroke="gray" d="M424.5,363.5A6,6,0,1,1,412.5,363.5A6,6,0,1,1,424.5,363.5"></path><path id="kity_path_125" fill="none" stroke="gray"></path></g><path id="node_outline13" fill="none" stroke="none" d="M429.5,352.5h84a5,5,0,0,1,5,5v12a5,5,0,0,1,-5,5h-84a5,5,0,0,1,-5,-5v-12a5,5,0,0,1,5,-5z" stroke-width="3"></path><g id="node_text13" fill="black"><text id="kity_text_121" text-rendering="inherit" font-size="12" dy=".8em" y="357.5" x="434.5">基于引用计数</text></g></g><g id="minder_node14"><g id="node_expander13" style="cursor: pointer;"><path id="kity_path_132" fill="white" stroke="gray" d="M424.5,467.5A6,6,0,1,1,412.5,467.5A6,6,0,1,1,424.5,467.5"></path><path id="kity_path_133" fill="none" stroke="gray" d="M414,467.5L423,467.5"></path></g><path id="node_outline14" fill="none" stroke="none" d="M429.5,456.5h84a5,5,0,0,1,5,5v12a5,5,0,0,1,-5,5h-84a5,5,0,0,1,-5,-5v-12a5,5,0,0,1,5,-5z" stroke-width="3"></path><g id="node_text14" fill="black"><text id="kity_text_129" text-rendering="inherit" font-size="12" dy=".8em" y="461.5" x="434.5">基于跟踪处理</text></g></g><g id="minder_node15"><g id="node_expander14" style="cursor: pointer;" display="none"><path id="kity_path_140" fill="white" stroke="gray" d="M558.5,415.5A6,6,0,1,1,546.5,415.5A6,6,0,1,1,558.5,415.5"></path><path id="kity_path_141" fill="none" stroke="gray"></path></g><path id="node_outline15" fill="none" stroke="none" d="M563.5,404.5h163a5,5,0,0,1,5,5v12a5,5,0,0,1,-5,5h-163a5,5,0,0,1,-5,-5v-12a5,5,0,0,1,5,-5z" stroke-width="3"></path><g id="node_text15" fill="black"><text id="kity_text_137" text-rendering="inherit" font-size="12" dy=".8em" y="409.5" x="568.5">标记-清除(Mark-Sweep)算法</text></g></g><g id="minder_node16"><g id="node_expander15" style="cursor: pointer;" display="none"><path id="kity_path_148" fill="white" stroke="gray" d="M558.5,467.5A6,6,0,1,1,546.5,467.5A6,6,0,1,1,558.5,467.5"></path><path id="kity_path_149" fill="none" stroke="gray" d="M548,467.5L557,467.5"></path></g><path id="node_outline16" fill="none" stroke="none" d="M563.5,456.5h175a5,5,0,0,1,5,5v12a5,5,0,0,1,-5,5h-175a5,5,0,0,1,-5,-5v-12a5,5,0,0,1,5,-5z" stroke-width="3"></path><g id="node_text16" fill="black"><text id="kity_text_145" text-rendering="inherit" font-size="12" dy=".8em" y="461.5" x="568.5">标记-整理(Mark-Compact)算法</text></g></g><g id="minder_node18"><g id="node_expander17" style="cursor: pointer;" display="none"><path id="kity_path_164" fill="white" stroke="gray" d="M558.5,519.5A6,6,0,1,1,546.5,519.5A6,6,0,1,1,558.5,519.5"></path><path id="kity_path_165" fill="none" stroke="gray"></path></g><path id="node_outline18" fill="none" stroke="none" d="M563.5,508.5h155a5,5,0,0,1,5,5v12a5,5,0,0,1,-5,5h-155a5,5,0,0,1,-5,-5v-12a5,5,0,0,1,5,-5z" stroke-width="3"></path><g id="node_text18" fill="black"><text id="kity_text_161" text-rendering="inherit" font-size="12" dy=".8em" y="513.5" x="568.5">标记-拷贝(Mark-Copy)算法</text></g></g><g id="minder_node19"><g id="node_expander18" style="cursor: pointer;" display="none"><path id="kity_path_172" fill="white" stroke="gray" d="M424.5,571.5A6,6,0,1,1,412.5,571.5A6,6,0,1,1,424.5,571.5"></path><path id="kity_path_173" fill="none" stroke="gray"></path></g><path id="node_outline19" fill="none" stroke="none" d="M429.5,560.5h143a5,5,0,0,1,5,5v12a5,5,0,0,1,-5,5h-143a5,5,0,0,1,-5,-5v-12a5,5,0,0,1,5,-5z" stroke-width="3"></path><g id="node_text19" fill="black"><text id="kity_text_169" text-rendering="inherit" font-size="12" dy=".8em" y="565.5" x="434.5">C++的垃圾回收任重道远</text></g></g></g></g></svg>