<svg id="kity_svg_6" xmlns="http://www.w3.org/2000/svg" xmlns:xlink="http://www.w3.org/1999/xlink" version="1.1" width="1141" height="1254" style="background: rgb(251, 251, 251); visibility: visible;" viewBox="0 0 1141 1254"><defs id="kity_defs_7"><linearGradient id="kity_linearGradient_17" x1="0" y1="0" x2="0" y2="1"><stop id="kity_stop_18" offset="0" stop-color="rgb(255, 255, 255)"></stop><stop id="kity_stop_19" offset="1" stop-color="rgb(204, 204, 204)"></stop></linearGradient><marker id="kity_marker_2" orient="auto" refX="6" refY="0" viewBox="-7 -7 14 14" markerWidth="7" markerHeight="7" markerUnits="userSpaceOnUse"><path id="kity_path_3" fill="rgb(115, 161, 191)" stroke="none" d="M6,0A6,6,0,1,1,-6,0A6,6,0,1,1,6,0"></path></marker></defs><g id="kity_g_8"><g id="minder1" text-rendering="optimize-speed"><g id="minder_connect_group1"><path id="kity_path_31" fill="none" stroke="rgb(115, 161, 191)" stroke-width="1" d="M141,627.5A238.5,492,0,0,1,379.5,135.5"></path><path id="kity_path_39" fill="none" stroke="rgb(115, 161, 191)" stroke-width="1" d="M520.5,135.5C540.5,135.5,540.5,31.5,560.5,31.5"></path><path id="kity_path_47" fill="none" stroke="rgb(115, 161, 191)" stroke-width="1" d="M520.5,135.5C540.5,135.5,540.5,83.5,560.5,83.5"></path><path id="kity_path_63" fill="none" stroke="rgb(115, 161, 191)" stroke-width="1" d="M520.5,135.5C540.5,135.5,540.5,135.5,560.5,135.5"></path><path id="kity_path_71" fill="none" stroke="rgb(115, 161, 191)" stroke-width="1" d="M520.5,135.5C540.5,135.5,540.5,187.5,560.5,187.5"></path><path id="kity_path_79" fill="none" stroke="rgb(115, 161, 191)" stroke-width="1" d="M520.5,135.5C540.5,135.5,540.5,239.5,560.5,239.5"></path><path id="kity_path_95" fill="none" stroke="rgb(115, 161, 191)" stroke-width="1" d="M141,627.5A238.5,287,0,0,1,379.5,340.5"></path><path id="kity_path_103" fill="none" stroke="rgb(115, 161, 191)" stroke-width="1" d="M506.5,340.5C526.5,340.5,526.5,301.5,546.5,301.5"></path><path id="kity_path_111" fill="none" stroke="rgb(115, 161, 191)" stroke-width="1" d="M506.5,340.5C526.5,340.5,526.5,379.5,546.5,379.5"></path><path id="kity_path_135" fill="none" stroke="rgb(115, 161, 191)" stroke-width="1" d="M836.5,379.5C856.5,379.5,856.5,353.5,876.5,353.5"></path><path id="kity_path_143" fill="none" stroke="rgb(115, 161, 191)" stroke-width="1" d="M836.5,379.5C856.5,379.5,856.5,405.5,876.5,405.5"></path><path id="kity_path_151" fill="none" stroke="rgb(115, 161, 191)" stroke-width="1" d="M141,627.5A238.5,18,0,0,0,379.5,645.5"></path><path id="kity_path_159" fill="none" stroke="rgb(115, 161, 191)" stroke-width="1" d="M479.5,645.5C499.5,645.5,499.5,467.5,519.5,467.5"></path><path id="kity_path_167" fill="none" stroke="rgb(115, 161, 191)" stroke-width="1" d="M479.5,645.5C499.5,645.5,499.5,519.5,519.5,519.5"></path><path id="kity_path_175" fill="none" stroke="rgb(115, 161, 191)" stroke-width="1" d="M479.5,645.5C499.5,645.5,499.5,580.5,519.5,580.5"></path><path id="kity_path_184" fill="none" stroke="rgb(115, 161, 191)" stroke-width="1" d="M479.5,645.5C499.5,645.5,499.5,641.5,519.5,641.5"></path><path id="kity_path_192" fill="none" stroke="rgb(115, 161, 191)" stroke-width="1" d="M479.5,645.5C499.5,645.5,499.5,823.5,519.5,823.5"></path><path id="kity_path_200" fill="none" stroke="rgb(115, 161, 191)" stroke-width="1" d="M661.5,823.5C681.5,823.5,681.5,693.5,701.5,693.5"></path><path id="kity_path_208" fill="none" stroke="rgb(115, 161, 191)" stroke-width="1" d="M661.5,823.5C681.5,823.5,681.5,745.5,701.5,745.5"></path><path id="kity_path_216" fill="none" stroke="rgb(115, 161, 191)" stroke-width="1" d="M661.5,823.5C681.5,823.5,681.5,797.5,701.5,797.5"></path><path id="kity_path_224" fill="none" stroke="rgb(115, 161, 191)" stroke-width="1" d="M661.5,823.5C681.5,823.5,681.5,849.5,701.5,849.5"></path><path id="kity_path_232" fill="none" stroke="rgb(115, 161, 191)" stroke-width="1" d="M661.5,823.5C681.5,823.5,681.5,901.5,701.5,901.5"></path><path id="kity_path_240" fill="none" stroke="rgb(115, 161, 191)" stroke-width="1" d="M661.5,823.5C681.5,823.5,681.5,953.5,701.5,953.5"></path><path id="kity_path_248" fill="none" stroke="rgb(115, 161, 191)" stroke-width="1" d="M141,627.5A238.5,492,0,0,0,379.5,1119.5"></path><path id="kity_path_264" fill="none" stroke="rgb(115, 161, 191)" stroke-width="1" d="M549.5,1119.5C569.5,1119.5,569.5,1015.5,589.5,1015.5"></path><path id="kity_path_272" fill="none" stroke="rgb(115, 161, 191)" stroke-width="1" d="M549.5,1119.5C569.5,1119.5,569.5,1067.5,589.5,1067.5"></path><path id="kity_path_280" fill="none" stroke="rgb(115, 161, 191)" stroke-width="1" d="M549.5,1119.5C569.5,1119.5,569.5,1119.5,589.5,1119.5"></path><path id="kity_path_288" fill="none" stroke="rgb(115, 161, 191)" stroke-width="1" d="M549.5,1119.5C569.5,1119.5,569.5,1171.5,589.5,1171.5"></path><path id="kity_path_296" fill="none" stroke="rgb(115, 161, 191)" stroke-width="1" d="M549.5,1119.5C569.5,1119.5,569.5,1223.5,589.5,1223.5"></path></g><g id="minder_node1"><path id="node_outline1" fill="rgb(115, 161, 191)" stroke="rgb(115, 161, 191)" d="M25.5,607.5h231a5,5,0,0,1,5,5v30a5,5,0,0,1,-5,5h-231a5,5,0,0,1,-5,-5v-30a5,5,0,0,1,5,-5z" stroke-width="3"></path><g id="node_text1" fill="white"><text id="kity_text_22" text-rendering="inherit" font-size="16" dy=".8em" y="619.5" x="44.5">提高性能及操作硬件的能力</text></g></g><g id="kity_g_12"><path id="kity_path_13" fill="none" stroke="none" d="M44.5,627.5h0v0h0z"></path></g><g id="kity_g_14"><path id="kity_path_15" fill="none" stroke="none" d="M44.5,627.5h0v0h0z"></path><path id="kity_path_16" fill="none" stroke="none"></path></g><g id="minder_node2"><g id="node_expander1" style="cursor: pointer;"><path id="kity_path_36" fill="white" stroke="gray" d="M380.5,135.5A6,6,0,1,1,368.5,135.5A6,6,0,1,1,380.5,135.5"></path><path id="kity_path_37" fill="none" stroke="gray" d="M370,135.5L379,135.5"></path></g><path id="node_outline2" fill="rgb(238, 243, 246)" stroke="rgb(115, 161, 191)" d="M384.5,122.5h133a3,3,0,0,1,3,3v20a3,3,0,0,1,-3,3h-133a3,3,0,0,1,-3,-3v-20a3,3,0,0,1,3,-3z" stroke-width="1"></path><g id="node_text2" fill="black"><text id="kity_text_33" text-rendering="inherit" font-size="14" dy=".8em" y="128.5" x="401.5">常量表达式函数</text></g></g><g id="minder_node3"><g id="node_expander2" style="cursor: pointer;" display="none"><path id="kity_path_44" fill="white" stroke="gray" d="M560.5,31.5A6,6,0,1,1,548.5,31.5A6,6,0,1,1,560.5,31.5"></path><path id="kity_path_45" fill="none" stroke="gray"></path></g><path id="node_outline3" fill="none" stroke="none" d="M565.5,20.5h328a5,5,0,0,1,5,5v12a5,5,0,0,1,-5,5h-328a5,5,0,0,1,-5,-5v-12a5,5,0,0,1,5,-5z" stroke-width="3"></path><g id="node_text3" fill="black"><text id="kity_text_41" text-rendering="inherit" font-size="12" dy=".8em" y="25.5" x="570.5">在函数返回类型前面加上constexpr使其成为常量表达式函数</text></g></g><g id="minder_node4"><g id="node_expander3" style="cursor: pointer;" display="none"><path id="kity_path_52" fill="white" stroke="gray" d="M560.5,83.5A6,6,0,1,1,548.5,83.5A6,6,0,1,1,560.5,83.5"></path><path id="kity_path_53" fill="none" stroke="gray" d="M550,83.5L559,83.5"></path></g><path id="node_outline4" fill="none" stroke="none" d="M565.5,72.5h229a5,5,0,0,1,5,5v12a5,5,0,0,1,-5,5h-229a5,5,0,0,1,-5,-5v-12a5,5,0,0,1,5,-5z" stroke-width="3"></path><g id="node_text4" fill="black"><text id="kity_text_49" text-rendering="inherit" font-size="12" dy=".8em" y="77.5" x="570.5">要求1：函数体只有单一的return返回语句</text></g></g><g id="minder_node6"><g id="node_expander5" style="cursor: pointer;" display="none"><path id="kity_path_68" fill="white" stroke="gray" d="M560.5,135.5A6,6,0,1,1,548.5,135.5A6,6,0,1,1,560.5,135.5"></path><path id="kity_path_69" fill="none" stroke="gray"></path></g><path id="node_outline6" fill="none" stroke="none" d="M565.5,124.5h151a5,5,0,0,1,5,5v12a5,5,0,0,1,-5,5h-151a5,5,0,0,1,-5,-5v-12a5,5,0,0,1,5,-5z" stroke-width="3"></path><g id="node_text6" fill="black"><text id="kity_text_65" text-rendering="inherit" font-size="12" dy=".8em" y="129.5" x="570.5">要求2：函数必须有返回值</text></g></g><g id="minder_node7"><g id="node_expander6" style="cursor: pointer;" display="none"><path id="kity_path_76" fill="white" stroke="gray" d="M560.5,187.5A6,6,0,1,1,548.5,187.5A6,6,0,1,1,560.5,187.5"></path><path id="kity_path_77" fill="none" stroke="gray"></path></g><path id="node_outline7" fill="none" stroke="none" d="M565.5,176.5h163a5,5,0,0,1,5,5v12a5,5,0,0,1,-5,5h-163a5,5,0,0,1,-5,-5v-12a5,5,0,0,1,5,-5z" stroke-width="3"></path><g id="node_text7" fill="black"><text id="kity_text_73" text-rendering="inherit" font-size="12" dy=".8em" y="181.5" x="570.5">要求3：在使用前必须已定义</text></g></g><g id="minder_node8"><g id="node_expander7" style="cursor: pointer;" display="none"><path id="kity_path_84" fill="white" stroke="gray" d="M560.5,239.5A6,6,0,1,1,548.5,239.5A6,6,0,1,1,560.5,239.5"></path><path id="kity_path_85" fill="none" stroke="gray"></path></g><path id="node_outline8" fill="none" stroke="none" d="M565.5,228.5h206a5,5,0,0,1,5,5v12a5,5,0,0,1,-5,5h-206a5,5,0,0,1,-5,-5v-12a5,5,0,0,1,5,-5z" stroke-width="3"></path><g id="node_text8" fill="black"><text id="kity_text_81" text-rendering="inherit" font-size="12" dy=".8em" y="233.5" x="570.5">要求4：return必须是一个常量表达式</text></g></g><g id="minder_node10"><g id="node_expander9" style="cursor: pointer;"><path id="kity_path_100" fill="white" stroke="gray" d="M380.5,340.5A6,6,0,1,1,368.5,340.5A6,6,0,1,1,380.5,340.5"></path><path id="kity_path_101" fill="none" stroke="gray" d="M370,340.5L379,340.5"></path></g><path id="node_outline10" fill="rgb(238, 243, 246)" stroke="rgb(115, 161, 191)" d="M384.5,327.5h119a3,3,0,0,1,3,3v20a3,3,0,0,1,-3,3h-119a3,3,0,0,1,-3,-3v-20a3,3,0,0,1,3,-3z" stroke-width="1"></path><g id="node_text10" fill="black"><text id="kity_text_97" text-rendering="inherit" font-size="14" dy=".8em" y="333.5" x="401.5">常量表达式值</text></g></g><g id="minder_node11"><g id="node_expander10" style="cursor: pointer;" display="none"><path id="kity_path_108" fill="white" stroke="gray" d="M546.5,301.5A6,6,0,1,1,534.5,301.5A6,6,0,1,1,546.5,301.5"></path><path id="kity_path_109" fill="none" stroke="gray"></path></g><path id="node_outline11" fill="none" stroke="none" d="M551.5,290.5h232a5,5,0,0,1,5,5v12a5,5,0,0,1,-5,5h-232a5,5,0,0,1,-5,-5v-12a5,5,0,0,1,5,-5z" stroke-width="3"></path><g id="node_text11" fill="black"><text id="kity_text_105" text-rendering="inherit" font-size="12" dy=".8em" y="295.5" x="556.5">有constexpr修饰的变量就是常量表达式值</text></g></g><g id="minder_node12"><g id="node_expander11" style="cursor: pointer;"><path id="kity_path_116" fill="white" stroke="gray" d="M546.5,379.5A6,6,0,1,1,534.5,379.5A6,6,0,1,1,546.5,379.5"></path><path id="kity_path_117" fill="none" stroke="gray" d="M536,379.5L545,379.5"></path></g><path id="node_outline12" fill="none" stroke="none" d="M551.5,368.5h280a5,5,0,0,1,5,5v12a5,5,0,0,1,-5,5h-280a5,5,0,0,1,-5,-5v-12a5,5,0,0,1,5,-5z" stroke-width="3"></path><g id="node_text12" fill="black"><text id="kity_text_113" text-rendering="inherit" font-size="12" dy=".8em" y="373.5" x="556.5">对于自定义数据，必须有constexpr修饰的构造函数</text></g></g><g id="minder_node15"><g id="node_expander14" style="cursor: pointer;" display="none"><path id="kity_path_140" fill="white" stroke="gray" d="M876.5,353.5A6,6,0,1,1,864.5,353.5A6,6,0,1,1,876.5,353.5"></path><path id="kity_path_141" fill="none" stroke="gray"></path></g><path id="node_outline15" fill="none" stroke="none" d="M881.5,342.5h139a5,5,0,0,1,5,5v12a5,5,0,0,1,-5,5h-139a5,5,0,0,1,-5,-5v-12a5,5,0,0,1,5,-5z" stroke-width="3"></path><g id="node_text15" fill="black"><text id="kity_text_137" text-rendering="inherit" font-size="12" dy=".8em" y="347.5" x="886.5">要求1：函数体必须为空</text></g></g><g id="minder_node16"><g id="node_expander15" style="cursor: pointer;" display="none"><path id="kity_path_148" fill="white" stroke="gray" d="M876.5,405.5A6,6,0,1,1,864.5,405.5A6,6,0,1,1,876.5,405.5"></path><path id="kity_path_149" fill="none" stroke="gray"></path></g><path id="node_outline16" fill="none" stroke="none" d="M881.5,394.5h235a5,5,0,0,1,5,5v12a5,5,0,0,1,-5,5h-235a5,5,0,0,1,-5,-5v-12a5,5,0,0,1,5,-5z" stroke-width="3"></path><g id="node_text16" fill="black"><text id="kity_text_145" text-rendering="inherit" font-size="12" dy=".8em" y="399.5" x="886.5">要求2：初始化列表只能由常量表达式赋值</text></g></g><g id="minder_node17"><g id="node_expander16" style="cursor: pointer;"><path id="kity_path_156" fill="white" stroke="gray" d="M380.5,645.5A6,6,0,1,1,368.5,645.5A6,6,0,1,1,380.5,645.5"></path><path id="kity_path_157" fill="none" stroke="gray" d="M370,645.5L379,645.5"></path></g><path id="node_outline17" fill="rgb(238, 243, 246)" stroke="rgb(115, 161, 191)" d="M384.5,632.5h92a3,3,0,0,1,3,3v20a3,3,0,0,1,-3,3h-92a3,3,0,0,1,-3,-3v-20a3,3,0,0,1,3,-3z" stroke-width="1"></path><g id="node_text17" fill="black"><text id="kity_text_153" text-rendering="inherit" font-size="14" dy=".8em" y="638.5" x="401.5">变长模板</text></g></g><g id="minder_node18"><g id="node_expander17" style="cursor: pointer;" display="none"><path id="kity_path_164" fill="white" stroke="gray" d="M519.5,467.5A6,6,0,1,1,507.5,467.5A6,6,0,1,1,519.5,467.5"></path><path id="kity_path_165" fill="none" stroke="gray"></path></g><path id="node_outline18" fill="none" stroke="none" d="M524.5,456.5h312a5,5,0,0,1,5,5v12a5,5,0,0,1,-5,5h-312a5,5,0,0,1,-5,-5v-12a5,5,0,0,1,5,-5z" stroke-width="3"></path><g id="node_text18" fill="black"><text id="kity_text_161" text-rendering="inherit" font-size="12" dy=".8em" y="461.5" x="529.5">声明方式：template &lt;typename... Elements&gt; class tuple</text></g></g><g id="minder_node19"><g id="node_expander18" style="cursor: pointer;" display="none"><path id="kity_path_172" fill="white" stroke="gray" d="M519.5,519.5A6,6,0,1,1,507.5,519.5A6,6,0,1,1,519.5,519.5"></path><path id="kity_path_173" fill="none" stroke="gray"></path></g><path id="node_outline19" fill="none" stroke="none" d="M524.5,508.5h158a5,5,0,0,1,5,5v12a5,5,0,0,1,-5,5h-158a5,5,0,0,1,-5,-5v-12a5,5,0,0,1,5,-5z" stroke-width="3"></path><g id="node_text19" fill="black"><text id="kity_text_169" text-rendering="inherit" font-size="12" dy=".8em" y="513.5" x="529.5">Elements被称为模板参数包</text></g></g><g id="minder_node20"><g id="node_expander19" style="cursor: pointer;" display="none"><path id="kity_path_180" fill="white" stroke="gray" d="M519.5,580.5A6,6,0,1,1,507.5,580.5A6,6,0,1,1,519.5,580.5"></path><path id="kity_path_181" fill="none" stroke="gray"></path></g><path id="node_outline20" fill="none" stroke="none" d="M524.5,560.5h402a5,5,0,0,1,5,5v30a5,5,0,0,1,-5,5h-402a5,5,0,0,1,-5,-5v-30a5,5,0,0,1,5,-5z" stroke-width="3"></path><g id="node_text20" fill="black"><text id="kity_text_177" text-rendering="inherit" font-size="12" dy=".8em" y="565.5" x="529.5">为了使用模板参数包，我们需要通过包扩展解包：</text><text id="kity_text_182" text-rendering="inherit" font-size="12" dy=".8em" y="583.5" x="529.5">template&lt;typename... A&gt; class T : private B&lt;A...&gt;{};，A...就是一个包扩展</text></g></g><g id="minder_node21"><g id="node_expander20" style="cursor: pointer;" display="none"><path id="kity_path_189" fill="white" stroke="gray" d="M519.5,641.5A6,6,0,1,1,507.5,641.5A6,6,0,1,1,519.5,641.5"></path><path id="kity_path_190" fill="none" stroke="gray"></path></g><path id="node_outline21" fill="none" stroke="none" d="M524.5,630.5h228a5,5,0,0,1,5,5v12a5,5,0,0,1,-5,5h-228a5,5,0,0,1,-5,-5v-12a5,5,0,0,1,5,-5z" stroke-width="3"></path><g id="node_text21" fill="black"><text id="kity_text_186" text-rendering="inherit" font-size="12" dy=".8em" y="635.5" x="529.5">参数包会在包扩展的位置展开为多个参数</text></g></g><g id="minder_node22"><g id="node_expander21" style="cursor: pointer;"><path id="kity_path_197" fill="white" stroke="gray" d="M519.5,823.5A6,6,0,1,1,507.5,823.5A6,6,0,1,1,519.5,823.5"></path><path id="kity_path_198" fill="none" stroke="gray" d="M509,823.5L518,823.5"></path></g><path id="node_outline22" fill="none" stroke="none" d="M524.5,812.5h132a5,5,0,0,1,5,5v12a5,5,0,0,1,-5,5h-132a5,5,0,0,1,-5,-5v-12a5,5,0,0,1,5,-5z" stroke-width="3"></path><g id="node_text22" fill="black"><text id="kity_text_194" text-rendering="inherit" font-size="12" dy=".8em" y="817.5" x="529.5">参数包可以展开的位置</text></g></g><g id="minder_node23"><g id="node_expander22" style="cursor: pointer;" display="none"><path id="kity_path_205" fill="white" stroke="gray" d="M701.5,693.5A6,6,0,1,1,689.5,693.5A6,6,0,1,1,701.5,693.5"></path><path id="kity_path_206" fill="none" stroke="gray"></path></g><path id="node_outline23" fill="none" stroke="none" d="M706.5,682.5h48a5,5,0,0,1,5,5v12a5,5,0,0,1,-5,5h-48a5,5,0,0,1,-5,-5v-12a5,5,0,0,1,5,-5z" stroke-width="3"></path><g id="node_text23" fill="black"><text id="kity_text_202" text-rendering="inherit" font-size="12" dy=".8em" y="687.5" x="711.5">表达式</text></g></g><g id="minder_node24"><g id="node_expander23" style="cursor: pointer;" display="none"><path id="kity_path_213" fill="white" stroke="gray" d="M701.5,745.5A6,6,0,1,1,689.5,745.5A6,6,0,1,1,701.5,745.5"></path><path id="kity_path_214" fill="none" stroke="gray"></path></g><path id="node_outline24" fill="none" stroke="none" d="M706.5,734.5h72a5,5,0,0,1,5,5v12a5,5,0,0,1,-5,5h-72a5,5,0,0,1,-5,-5v-12a5,5,0,0,1,5,-5z" stroke-width="3"></path><g id="node_text24" fill="black"><text id="kity_text_210" text-rendering="inherit" font-size="12" dy=".8em" y="739.5" x="711.5">初始化列表</text></g></g><g id="minder_node25"><g id="node_expander24" style="cursor: pointer;" display="none"><path id="kity_path_221" fill="white" stroke="gray" d="M701.5,797.5A6,6,0,1,1,689.5,797.5A6,6,0,1,1,701.5,797.5"></path><path id="kity_path_222" fill="none" stroke="gray"></path></g><path id="node_outline25" fill="none" stroke="none" d="M706.5,786.5h84a5,5,0,0,1,5,5v12a5,5,0,0,1,-5,5h-84a5,5,0,0,1,-5,-5v-12a5,5,0,0,1,5,-5z" stroke-width="3"></path><g id="node_text25" fill="black"><text id="kity_text_218" text-rendering="inherit" font-size="12" dy=".8em" y="791.5" x="711.5">基类描述列表</text></g></g><g id="minder_node26"><g id="node_expander25" style="cursor: pointer;" display="none"><path id="kity_path_229" fill="white" stroke="gray" d="M701.5,849.5A6,6,0,1,1,689.5,849.5A6,6,0,1,1,701.5,849.5"></path><path id="kity_path_230" fill="none" stroke="gray"></path></g><path id="node_outline26" fill="none" stroke="none" d="M706.5,838.5h108a5,5,0,0,1,5,5v12a5,5,0,0,1,-5,5h-108a5,5,0,0,1,-5,-5v-12a5,5,0,0,1,5,-5z" stroke-width="3"></path><g id="node_text26" fill="black"><text id="kity_text_226" text-rendering="inherit" font-size="12" dy=".8em" y="843.5" x="711.5">类成员初始化列表</text></g></g><g id="minder_node27"><g id="node_expander26" style="cursor: pointer;" display="none"><path id="kity_path_237" fill="white" stroke="gray" d="M701.5,901.5A6,6,0,1,1,689.5,901.5A6,6,0,1,1,701.5,901.5"></path><path id="kity_path_238" fill="none" stroke="gray"></path></g><path id="node_outline27" fill="none" stroke="none" d="M706.5,890.5h84a5,5,0,0,1,5,5v12a5,5,0,0,1,-5,5h-84a5,5,0,0,1,-5,-5v-12a5,5,0,0,1,5,-5z" stroke-width="3"></path><g id="node_text27" fill="black"><text id="kity_text_234" text-rendering="inherit" font-size="12" dy=".8em" y="895.5" x="711.5">通用属性列表</text></g></g><g id="minder_node28"><g id="node_expander27" style="cursor: pointer;" display="none"><path id="kity_path_245" fill="white" stroke="gray" d="M701.5,953.5A6,6,0,1,1,689.5,953.5A6,6,0,1,1,701.5,953.5"></path><path id="kity_path_246" fill="none" stroke="gray"></path></g><path id="node_outline28" fill="none" stroke="none" d="M706.5,942.5h135a5,5,0,0,1,5,5v12a5,5,0,0,1,-5,5h-135a5,5,0,0,1,-5,-5v-12a5,5,0,0,1,5,-5z" stroke-width="3"></path><g id="node_text28" fill="black"><text id="kity_text_242" text-rendering="inherit" font-size="12" dy=".8em" y="947.5" x="711.5">lambda函数的捕捉列表</text></g></g><g id="minder_node29"><g id="node_expander28" style="cursor: pointer;"><path id="kity_path_253" fill="white" stroke="gray" d="M380.5,1119.5A6,6,0,1,1,368.5,1119.5A6,6,0,1,1,380.5,1119.5"></path><path id="kity_path_254" fill="none" stroke="gray" d="M370,1119.5L379,1119.5"></path></g><path id="node_outline29" fill="rgb(238, 243, 246)" stroke="rgb(115, 161, 191)" d="M384.5,1106.5h162a3,3,0,0,1,3,3v20a3,3,0,0,1,-3,3h-162a3,3,0,0,1,-3,-3v-20a3,3,0,0,1,3,-3z" stroke-width="1"></path><g id="node_text29" fill="black"><text id="kity_text_250" text-rendering="inherit" font-size="14" dy=".8em" y="1112.5" x="401.5">原子类型与原子操作</text></g></g><g id="minder_node31"><g id="node_expander30" style="cursor: pointer;" display="none"><path id="kity_path_269" fill="white" stroke="gray" d="M589.5,1015.5A6,6,0,1,1,577.5,1015.5A6,6,0,1,1,589.5,1015.5"></path><path id="kity_path_270" fill="none" stroke="gray"></path></g><path id="node_outline31" fill="none" stroke="rgb(57, 80, 96)" d="M594.5,1004.5h132a5,5,0,0,1,5,5v12a5,5,0,0,1,-5,5h-132a5,5,0,0,1,-5,-5v-12a5,5,0,0,1,5,-5z" stroke-width="3"></path><g id="node_text31" fill="black"><text id="kity_text_266" text-rendering="inherit" font-size="12" dy=".8em" y="1009.5" x="599.5">原子操作即互斥的操作</text></g></g><g id="minder_node32"><g id="node_expander31" style="cursor: pointer;" display="none"><path id="kity_path_277" fill="white" stroke="gray" d="M589.5,1067.5A6,6,0,1,1,577.5,1067.5A6,6,0,1,1,589.5,1067.5"></path><path id="kity_path_278" fill="none" stroke="gray"></path></g><path id="node_outline32" fill="none" stroke="none" d="M594.5,1056.5h320a5,5,0,0,1,5,5v12a5,5,0,0,1,-5,5h-320a5,5,0,0,1,-5,-5v-12a5,5,0,0,1,5,-5z" stroke-width="3"></path><g id="node_text32" fill="black"><text id="kity_text_274" text-rendering="inherit" font-size="12" dy=".8em" y="1061.5" x="599.5">c++11使用原子数据类型就可以实现原子操作，不需要加锁</text></g></g><g id="minder_node33"><g id="node_expander32" style="cursor: pointer;" display="none"><path id="kity_path_285" fill="white" stroke="gray" d="M589.5,1119.5A6,6,0,1,1,577.5,1119.5A6,6,0,1,1,589.5,1119.5"></path><path id="kity_path_286" fill="none" stroke="gray"></path></g><path id="node_outline33" fill="none" stroke="none" d="M594.5,1108.5h149a5,5,0,0,1,5,5v12a5,5,0,0,1,-5,5h-149a5,5,0,0,1,-5,-5v-12a5,5,0,0,1,5,-5z" stroke-width="3"></path><g id="node_text33" fill="black"><text id="kity_text_282" text-rendering="inherit" font-size="12" dy=".8em" y="1113.5" x="599.5">内存模型及memroy_order</text></g></g><g id="minder_node34"><g id="node_expander33" style="cursor: pointer;" display="none"><path id="kity_path_293" fill="white" stroke="gray" d="M589.5,1171.5A6,6,0,1,1,577.5,1171.5A6,6,0,1,1,589.5,1171.5"></path><path id="kity_path_294" fill="none" stroke="gray"></path></g><path id="node_outline34" fill="none" stroke="none" d="M594.5,1160.5h197a5,5,0,0,1,5,5v12a5,5,0,0,1,-5,5h-197a5,5,0,0,1,-5,-5v-12a5,5,0,0,1,5,-5z" stroke-width="3"></path><g id="node_text34" fill="black"><text id="kity_text_290" text-rendering="inherit" font-size="12" dy=".8em" y="1165.5" x="599.5">使用thread_local修饰线程局部变量</text></g></g><g id="minder_node35"><g id="node_expander34" style="cursor: pointer;" display="none"><path id="kity_path_301" fill="white" stroke="gray" d="M589.5,1223.5A6,6,0,1,1,577.5,1223.5A6,6,0,1,1,589.5,1223.5"></path><path id="kity_path_302" fill="none" stroke="gray"></path></g><path id="node_outline35" fill="none" stroke="none" d="M594.5,1212.5h208a5,5,0,0,1,5,5v12a5,5,0,0,1,-5,5h-208a5,5,0,0,1,-5,-5v-12a5,5,0,0,1,5,-5z" stroke-width="3"></path><g id="node_text35" fill="black"><text id="kity_text_298" text-rendering="inherit" font-size="12" dy=".8em" y="1217.5" x="599.5">快速退出：quick_exit及at_quick_exit</text></g></g></g></g></svg>